<svg xmlns="http://www.w3.org/2000/svg" viewBox="0 0 32 32" width="32" height="32">
  <defs>
    <linearGradient id="dashboardGradient" x1="0%" y1="0%" x2="100%" y2="100%">
      <stop offset="0%" style="stop-color:#6366F1;stop-opacity:1" />
      <stop offset="100%" style="stop-color:#4F46E5;stop-opacity:1" />
    </linearGradient>
  </defs>
  
  <!-- Background circle -->
  <circle cx="16" cy="16" r="15" fill="url(#dashboardGradient)" stroke="#3730A3" stroke-width="1"/>
  
  <!-- Dashboard grid -->
  <g transform="translate(8, 8) scale(0.5)">
    <!-- Top row -->
    <rect x="2" y="2" width="6" height="6" fill="rgba(255,255,255,0.9)" rx="1"/>
    <rect x="10" y="2" width="6" height="6" fill="rgba(255,255,255,0.7)" rx="1"/>
    <rect x="18" y="2" width="6" height="6" fill="rgba(255,255,255,0.9)" rx="1"/>
    
    <!-- Middle row -->
    <rect x="2" y="10" width="6" height="6" fill="rgba(255,255,255,0.7)" rx="1"/>
    <rect x="10" y="10" width="6" height="6" fill="rgba(255,255,255,0.9)" rx="1"/>
    <rect x="18" y="10" width="6" height="6" fill="rgba(255,255,255,0.7)" rx="1"/>
    
    <!-- Bottom row -->
    <rect x="2" y="18" width="6" height="6" fill="rgba(255,255,255,0.9)" rx="1"/>
    <rect x="10" y="18" width="6" height="6" fill="rgba(255,255,255,0.7)" rx="1"/>
    <rect x="18" y="18" width="6" height="6" fill="rgba(255,255,255,0.9)" rx="1"/>
  </g>
  
  <!-- Highlight -->
  <circle cx="12" cy="12" r="2" fill="rgba(255,255,255,0.4)"/>
</svg> 