<svg xmlns="http://www.w3.org/2000/svg" viewBox="0 0 32 32" width="32" height="32">
  <defs>
    <linearGradient id="brainGradient" x1="0%" y1="0%" x2="100%" y2="100%">
      <stop offset="0%" style="stop-color:#3B82F6;stop-opacity:1" />
      <stop offset="100%" style="stop-color:#8B5CF6;stop-opacity:1" />
    </linearGradient>
  </defs>
  
  <!-- Background circle -->
  <circle cx="16" cy="16" r="15" fill="url(#brainGradient)" stroke="#1E40AF" stroke-width="1"/>
  
  <!-- Simplified brain icon - designed for small size visibility -->
  <g transform="translate(8, 8)">
    <!-- Left hemisphere -->
    <path d="M4 6 C2 6 1 8 1 10 C1 12 2 14 4 14 C6 14 7 12 7 10 C7 8 6 6 4 6 Z" fill="#FFFFFF"/>
    
    <!-- Right hemisphere -->
    <path d="M12 6 C10 6 9 8 9 10 C9 12 10 14 12 14 C14 14 15 12 15 10 C15 8 14 6 12 6 Z" fill="#FFFFFF"/>
    
    <!-- Brain stem -->
    <path d="M7 14 L9 14 L8 18 Z" fill="#FFFFFF"/>
    
    <!-- Simple neural connections -->
    <path d="M4 10 L6 10" stroke="#3B82F6" stroke-width="1" stroke-linecap="round"/>
    <path d="M10 10 L12 10" stroke="#8B5CF6" stroke-width="1" stroke-linecap="round"/>
  </g>
</svg> 