<svg xmlns="http://www.w3.org/2000/svg" viewBox="0 0 32 32" width="32" height="32">
  <defs>
    <linearGradient id="brainGradient" x1="0%" y1="0%" x2="100%" y2="100%">
      <stop offset="0%" style="stop-color:#3B82F6;stop-opacity:1" />
      <stop offset="100%" style="stop-color:#1D4ED8;stop-opacity:1" />
    </linearGradient>
  </defs>
  
  <!-- Background circle -->
  <circle cx="16" cy="16" r="15" fill="url(#brainGradient)" stroke="#1E40AF" stroke-width="1"/>
  
  <!-- Brain emoji representation -->
  <g transform="translate(8, 8) scale(0.5)">
    <!-- Brain lobes -->
    <path d="M12 4c-2.5 0-4.5 2-4.5 4.5s2 4.5 4.5 4.5 4.5-2 4.5-4.5S14.5 4 12 4z" fill="#F59E0B"/>
    <path d="M20 4c-2.5 0-4.5 2-4.5 4.5s2 4.5 4.5 4.5 4.5-2 4.5-4.5S22.5 4 20 4z" fill="#F59E0B"/>
    
    <!-- Brain stem -->
    <rect x="15" y="12" width="2" height="6" fill="#F59E0B"/>
    
    <!-- Brain wrinkles -->
    <path d="M8 8c0-1.5 1.5-2.5 3-2.5s3 1 3 2.5" stroke="#D97706" stroke-width="1" fill="none"/>
    <path d="M24 8c0-1.5-1.5-2.5-3-2.5s-3 1-3 2.5" stroke="#D97706" stroke-width="1" fill="none"/>
    <path d="M12 10c-1 0-2 0.5-2 1.5s1 1.5 2 1.5 2-0.5 2-1.5-1-1.5-2-1.5z" fill="#D97706"/>
    <path d="M20 10c-1 0-2 0.5-2 1.5s1 1.5 2 1.5 2-0.5 2-1.5-1-1.5-2-1.5z" fill="#D97706"/>
  </g>
  
  <!-- Highlight -->
  <circle cx="12" cy="12" r="2" fill="rgba(255,255,255,0.3)"/>
</svg> 